<svg xmlns="http://www.w3.org/2000/svg" viewBox="0 0 750 500"><g id="freepik--Car--inject-46"><rect x="85.58" y="332.06" width="443.45" height="65.63" transform="translate(614.04 730.22) rotate(-179.91)" style="fill:#455a64"></rect><path d="M552.17,284.05s-11.09,1.24-13.06,0c-4.46-2.87-101.52-42-184.92-42.09-66.89-.09-127.12,17.65-185.7,56.76,0,0-71.34,7.86-99.2,28.74-6.51,3.78-19.8,18.68-14.73,52.52,3.23,21.58,19.3,22.49,41.25,22,0,0-8.17-65.55,50.25-60.54,49.64,4.25,40.14,64.85,40.14,64.85l248.73.39s1.09-26.92,2.15-33.44c2.11-13.06,18.34-34.46,48.64-31.28,33.24,3.49,44.3,33.82,42.17,59.42,0,0,35.07,7.58,39.81-20.63l8.37-2.6s3.22-58.52-26-83.12l6.27-4.17Z" style="fill:#FCFAFA"></path><path d="M535.63,282.18s-2.07,5.64-9.2,5c-5.81-.51-39-13.09-51.1-17.73a11.73,11.73,0,0,1-7.23-7.74,4.52,4.52,0,0,1-.16-2.31S519.54,271.8,535.63,282.18Z" style="fill:#455a64"></path><path d="M250.72,257.67h0A12.61,12.61,0,0,1,243.54,269l-71,33.83-4.06-4.37s7.42-5.34,17.12-11.11c9-5.33,20-11,26.57-14.2A288.53,288.53,0,0,1,250.72,257.67Z" style="fill:#455a64"></path><g style="opacity:0.30000000000000004"><path d="M486.44,287.19a4.37,4.37,0,0,1,0,6.64c-3.52,3.59-20.29,16.06-28.08,16.82S214,327.2,200,323.19,177.8,312.08,181.32,308l6.35-2.1,111.52,2.28Z" style="fill:#fff"></path></g><g style="opacity:0.7000000000000001"><path d="M572.49,337.49s-13.77,4.08-19.65-6.78-12.36-22.34-12.36-24.82c0-3.11,2.23-13.11,9.59-11.08C550.07,294.81,570.54,311.12,572.49,337.49Z" style="fill:#fff"></path></g><g style="opacity:0.7000000000000001"><path d="M63.23,348.63s53.32-21.33,44.69-28.6c-4.55-3.84-48.39,17.28-44.69,28.6" style="fill:#fff"></path></g><path d="M85,401.79s0-.18,0-.53-.06-.88-.07-1.58c0-1.38-.06-3.41,0-6a97.58,97.58,0,0,1,3.4-21.93A70.05,70.05,0,0,1,94,357.46a49.72,49.72,0,0,1,10.8-13.88l1.77-1.55,1.91-1.41a47.12,47.12,0,0,1,4.06-2.64c.69-.43,1.45-.75,2.18-1.13s1.46-.77,2.24-1.08l2.33-.92,1.18-.46,1.21-.37a45,45,0,0,1,5-1.31l2.54-.53c.86-.13,1.73-.22,2.59-.34s1.74-.23,2.62-.32l2.64-.13a45.36,45.36,0,0,1,5.35-.12,56.48,56.48,0,0,1,20.5,3.8,44.37,44.37,0,0,1,16,10.92,54.82,54.82,0,0,1,9.62,14.73,76.15,76.15,0,0,1,4.83,14.57,106.28,106.28,0,0,1,2.52,22c0,2.63-.07,4.67-.15,6.05,0,.68-.09,1.21-.13,1.56s-.08.53-.08.53,0-.18,0-.53,0-.9.07-1.57c.06-1.38.1-3.41,0-6a108.18,108.18,0,0,0-2.67-22,76.72,76.72,0,0,0-4.86-14.47,54.37,54.37,0,0,0-9.58-14.58,43.79,43.79,0,0,0-15.88-10.77,56,56,0,0,0-20.32-3.76,66,66,0,0,0-20.52,2.72l-1.21.36-1.16.46-2.31.9c-.77.31-1.48.72-2.21,1.07s-1.48.69-2.16,1.12a44.53,44.53,0,0,0-4,2.59l-1.9,1.4-1.75,1.53a49.49,49.49,0,0,0-10.74,13.73,69.5,69.5,0,0,0-5.73,14.14,99.76,99.76,0,0,0-3.56,21.84c-.13,2.62-.15,4.65-.14,6l0,1.57C85,401.61,85,401.79,85,401.79Z" style="fill:#263238"></path><path d="M426.55,406.45s0-.18-.07-.53-.07-.86-.11-1.54c-.09-1.36-.17-3.38-.15-6a103.67,103.67,0,0,1,2.41-21.79,75.58,75.58,0,0,1,4.7-14.41,52.91,52.91,0,0,1,9.53-14.53,43.09,43.09,0,0,1,15.84-10.75A57.14,57.14,0,0,1,479,333.15a66.26,66.26,0,0,1,20.48,2.39c.4.12.81.21,1.2.34l1.17.43,2.33.87c1.52.6,3,1.38,4.42,2.06,1.37.84,2.78,1.6,4.07,2.51l1.89,1.39c.31.23.64.45.93.7l.87.77a48.64,48.64,0,0,1,10.84,13.57,65.4,65.4,0,0,1,5.54,14.11,89.48,89.48,0,0,1,3,21.7c.05,2.59,0,4.61-.11,6,0,.68-.08,1.2-.12,1.55s-.08.52-.08.52a2.65,2.65,0,0,1,0-.53c0-.37,0-.88.08-1.55,0-1.36.09-3.37,0-5.95a92.28,92.28,0,0,0-3.13-21.62,66.39,66.39,0,0,0-5.57-14A48.28,48.28,0,0,0,516,345l-.86-.76c-.3-.24-.62-.45-.92-.69l-1.88-1.37c-1.27-.89-2.67-1.64-4-2.47-1.45-.67-2.87-1.44-4.38-2l-2.3-.85-1.16-.42c-.39-.14-.8-.23-1.2-.34A65.7,65.7,0,0,0,479,333.68a56.71,56.71,0,0,0-20.08,3.72A42.69,42.69,0,0,0,443.21,348a52.69,52.69,0,0,0-9.49,14.38A77,77,0,0,0,429,376.7a107.73,107.73,0,0,0-2.56,21.71c-.05,2.59,0,4.6.05,6,0,.67,0,1.18.07,1.55S426.55,406.45,426.55,406.45Z" style="fill:#263238"></path><path d="M484.1,287.18s-20.68,18-29.64,18-245.11,14.32-255.62,10.07a107.66,107.66,0,0,1-16-7.72s77.06-55.5,166.86-52.84C415.62,256.64,484.1,287.18,484.1,287.18Z" style="fill:#455a64"></path><polygon points="230.54 281.03 214.94 316.03 207.02 316.02 219.91 286.06 230.54 281.03" style="fill:#263238"></polygon><g style="opacity:0.30000000000000004"><path d="M399.4,325.41h28a0,0,0,0,1,0,0V331a1.27,1.27,0,0,1-1.27,1.27H400.67A1.27,1.27,0,0,1,399.4,331v-5.54A0,0,0,0,1,399.4,325.41Z" transform="translate(826.29 658.27) rotate(-179.91)"></path></g><g style="opacity:0.30000000000000004"><path d="M290.28,325.24h28a0,0,0,0,1,0,0v5.54a1.27,1.27,0,0,1-1.27,1.27H291.54a1.27,1.27,0,0,1-1.27-1.27v-5.54a0,0,0,0,1,0,0Z" transform="translate(608.04 657.76) rotate(-179.91)"></path></g><polygon points="415.2 264.31 439.65 305.86 416.87 307.08 419.81 287.09 404.85 261.91 415.2 264.31" style="fill:#263238"></polygon><polygon points="326.06 255.28 322.25 312.04 330.56 311.63 334.15 254.77 326.06 255.28" style="fill:#263238"></polygon><path d="M219.64,324.61l3.55-3.67-5.65-7.19-4.86,4.65a3.59,3.59,0,0,0-1.25,2.44C210.75,325.31,216.5,327.85,219.64,324.61Z" style="fill:#263238"></path><path d="M234,323.26c8.63.29,15.42-8.51,11.83-16.37a6,6,0,0,0-4.53-3.73c-9-1.57-20.65-2.15-23.79,10.59-.92,3.77,1.19,6.1,4.64,7.51C225.43,322.6,229.86,323.11,234,323.26Z" style="fill:#FCFAFA"></path><circle cx="139.61" cy="388.47" r="39.57" transform="translate(-257.57 500.93) rotate(-86.04)" style="fill:#263238"></circle><path d="M139.65,362.11a26.36,26.36,0,1,0,26.29,26.41A26.35,26.35,0,0,0,139.65,362.11ZM118.5,388.45a21.11,21.11,0,1,1,21.08,21.14A21.15,21.15,0,0,1,118.5,388.45Z" style="fill:#e0e0e0"></path><path d="M139.64,367.33a21.13,21.13,0,1,0,21.08,21.18A21.15,21.15,0,0,0,139.64,367.33Z" style="fill:#f5f5f5"></path><path d="M133.37,388.54a6.24,6.24,0,1,0,6.25-6.23A6.24,6.24,0,0,0,133.37,388.54Z" style="fill:#263238"></path><circle cx="480.07" cy="389.89" r="39.57" transform="translate(-135.08 453.65) rotate(-45)" style="fill:#263238"></circle><path d="M480.11,363.52a26.36,26.36,0,1,0,26.29,26.42A26.36,26.36,0,0,0,480.11,363.52ZM459,389.87A21.11,21.11,0,1,1,480,411,21.14,21.14,0,0,1,459,389.87Z" style="fill:#e0e0e0"></path><path d="M480.1,368.75a21.13,21.13,0,1,0,21.07,21.18A21.14,21.14,0,0,0,480.1,368.75Z" style="fill:#f5f5f5"></path><path d="M473.83,390a6.24,6.24,0,1,0,6.24-6.23A6.24,6.24,0,0,0,473.83,390Z" style="fill:#263238"></path><path d="M498.81,315.54a6.15,6.15,0,1,1-6.06-6.23A6.15,6.15,0,0,1,498.81,315.54Z" style="fill:#263238"></path><path d="M426.4,392.5l-.59,0-1.75,0-6.72.13-24.7.4-81.51,1c-31.84.33-60.67.54-81.53.57-10.43,0-18.88,0-24.71-.1s-9.08-.23-9-.42a12.22,12.22,0,0,0,2.32.15c1.53,0,3.8.06,6.71.07,5.83,0,14.28,0,24.71-.06l81.52-.74,81.51-.86,24.71-.23,6.72,0h1.75Z" style="fill:#263238"></path><path d="M325.51,406.26c-.15,0,0-21,.41-46.86s.8-46.87.94-46.86,0,21-.42,46.86S325.65,406.26,325.51,406.26Z" style="fill:#263238"></path><path d="M380.38,271.25c.09.11-6.36,6-14.41,13.16s-14.65,12.87-14.75,12.76,6.36-6,14.41-13.15S380.28,271.15,380.38,271.25Z" style="fill:#f5f5f5"></path><path d="M377.21,282.59a9.59,9.59,0,0,1-1,1c-.66.63-1.63,1.52-2.85,2.6-2.43,2.18-5.83,5.12-9.67,8.28s-7.39,5.94-10,7.91c-1.3,1-2.36,1.76-3.1,2.29a7.6,7.6,0,0,1-1.19.78,7.81,7.81,0,0,1,1.06-.94l3-2.42c2.54-2,6-4.86,9.89-8s7.27-6.06,9.76-8.16l3-2.47A6.55,6.55,0,0,1,377.21,282.59Z" style="fill:#f5f5f5"></path><path d="M295.85,272.5c.08.12-9.33,6.68-21,14.66s-21.23,14.35-21.31,14.23,9.32-6.68,21-14.66S295.77,272.38,295.85,272.5Z" style="fill:#f5f5f5"></path><path d="M304.61,272.1a8.82,8.82,0,0,1-1.21,1L300,275.72l-11.23,8.62-11.13,8.75-3.37,2.66a8.78,8.78,0,0,1-1.28.92,9.5,9.5,0,0,1,1.15-1.08c.76-.67,1.88-1.62,3.27-2.79,2.78-2.32,6.67-5.48,11-8.87s8.39-6.39,11.33-8.51c1.47-1.06,2.67-1.9,3.51-2.47A8.8,8.8,0,0,1,304.61,272.1Z" style="fill:#f5f5f5"></path><path d="M163.42,300.87a1,1,0,0,1-.28.06l-.8.12-3.1.42c-2.69.37-6.58.92-11.36,1.74A295.89,295.89,0,0,0,111,312c-7.08,2.18-13.73,4.53-19.71,6.86a128.23,128.23,0,0,0-15.54,6.94,44.88,44.88,0,0,0-9.3,6.65c-.51.45-.92.89-1.28,1.26s-.67.7-.9,1l-.55.6a2,2,0,0,1-.19.2s0-.09.15-.23l.51-.64c.22-.28.5-.62.86-1s.76-.84,1.26-1.31a43.27,43.27,0,0,1,9.26-6.82,123.06,123.06,0,0,1,15.55-7.06c6-2.36,12.64-4.74,19.73-6.91a277,277,0,0,1,36.95-8.66c4.8-.77,8.7-1.27,11.4-1.58l3.11-.32.81-.07A.86.86,0,0,1,163.42,300.87Z" style="fill:#f5f5f5"></path><path d="M412.48,248.79l-.41,0-1.21-.2-4.62-.8c-4-.68-9.84-1.6-17.07-2.47a289.56,289.56,0,0,0-56.78-1.44c-22.17,1.74-41.89,6.16-56,9.62-7.07,1.76-12.76,3.29-16.69,4.37l-4.53,1.23-1.18.31a2,2,0,0,1-.41.09,2,2,0,0,1,.4-.14l1.16-.36,4.5-1.33c3.92-1.14,9.6-2.73,16.66-4.53,14.12-3.55,33.85-8,56.07-9.78a281.22,281.22,0,0,1,56.86,1.59c7.24.92,13.06,1.9,17.07,2.64,2,.36,3.55.69,4.6.89l1.2.25A1.86,1.86,0,0,1,412.48,248.79Z" style="fill:#f5f5f5"></path><path d="M244.61,306a7.78,7.78,0,0,1-1.31-.13c-.83-.1-2-.25-3.53-.32a35.23,35.23,0,0,0-11.56,1.23,17.8,17.8,0,0,0-5.68,2.84,13.07,13.07,0,0,0-3.4,3.89,12.78,12.78,0,0,0-1.48,4.56s0-.12,0-.34a6.52,6.52,0,0,1,.06-1,10.44,10.44,0,0,1,1.12-3.42,13,13,0,0,1,3.43-4.09,17.79,17.79,0,0,1,5.83-3,33.06,33.06,0,0,1,11.73-1.1,29.48,29.48,0,0,1,3.55.49A6.06,6.06,0,0,1,244.61,306Z" style="fill:#f5f5f5"></path><path d="M317.92,319.57c0,.15-14.54,1.13-32.49,2.2s-32.51,1.82-32.52,1.68,14.53-1.13,32.49-2.2S317.91,319.43,317.92,319.57Z" style="fill:#f5f5f5"></path><path d="M154.32,331.65a1.19,1.19,0,0,1-.26,0l-.73-.16c-.64-.12-1.56-.41-2.79-.6a59.49,59.49,0,0,0-10.45-1,66.12,66.12,0,0,0-15.46,1.54,51.73,51.73,0,0,0-17.55,7.12,50.48,50.48,0,0,0-13.36,13.41,54.18,54.18,0,0,0-6.8,13.94,51.33,51.33,0,0,0-2.17,10.26c-.19,1.23-.18,2.2-.25,2.85l-.06.74a1.11,1.11,0,0,1,0,.26.76.76,0,0,1,0-.26v-.74c0-.66,0-1.63.15-2.87a49.08,49.08,0,0,1,2-10.35,53.67,53.67,0,0,1,6.75-14.1A50.32,50.32,0,0,1,106.8,338a51.48,51.48,0,0,1,17.72-7.16,65.63,65.63,0,0,1,15.58-1.44,56.08,56.08,0,0,1,10.48,1.21c1.23.22,2.14.55,2.78.7l.72.21Z" style="fill:#f5f5f5"></path></g></svg>
